<svg width="24" height="24" viewBox="0 0 24 24" fill="none" xmlns="http://www.w3.org/2000/svg">
  <path d="M17 8C17 10.7614 14.7614 13 12 13C9.23858 13 7 10.7614 7 8C7 5.23858 9.23858 3 12 3C14.7614 3 17 5.23858 17 8Z" fill="currentColor"/>
  <path d="M3 21C3 16.5817 7.02944 13 12 13C16.9706 13 21 16.5817 21 21" stroke="currentColor" stroke-width="2" stroke-linecap="round"/>
  <path d="M14 8C14 9.10457 13.1046 10 12 10C10.8954 10 10 9.10457 10 8C10 6.89543 10.8954 6 12 6C13.1046 6 14 6.89543 14 8Z" fill="white"/>
  <circle cx="7" cy="11" r="2" fill="currentColor"/>
  <circle cx="17" cy="11" r="2" fill="currentColor"/>
</svg> 