<svg xmlns="http://www.w3.org/2000/svg">
  <defs>
    <!-- 火箭图标 -->
    <symbol id="rocket" viewBox="0 0 24 24">
      <path d="M12 2L18 8V20L16 22H8L6 20V8L12 2Z" fill="currentColor"/>
      <path d="M8 2L12 6L16 2L12 0Z" fill="currentColor" opacity="0.8"/>
      <circle cx="12" cy="12" r="3" fill="white"/>
      <path d="M6 18L2 22L6 20Z M18 18L22 22L18 20Z" fill="currentColor"/>
      <path d="M8 22L10 26L12 24L14 26L16 22" fill="currentColor" opacity="0.6"/>
    </symbol>

    <!-- 兔子徽章图标 -->
    <symbol id="badge-bunny" viewBox="0 0 24 24">
      <circle cx="12" cy="12" r="10" fill="currentColor"/>
      <path d="M8 8C8 6 10 5 12 5C14 5 16 6 16 8C16 11 12 10 12 13" stroke="white" stroke-width="2"/>
      <circle cx="12" cy="16" r="1" fill="white"/>
    </symbol>

    <!-- AI球体图标 -->
    <symbol id="ai-orb" viewBox="0 0 24 24">
      <circle cx="12" cy="12" r="10" fill="currentColor"/>
      <path d="M7 12H17M12 7V17" stroke="white" stroke-width="2"/>
      <circle cx="12" cy="12" r="4" stroke="white" stroke-width="2"/>
    </symbol>

    <!-- 奔跑的熊猫图标 -->
    <symbol id="panda-run" viewBox="0 0 24 24">
      <circle cx="12" cy="12" r="8" fill="currentColor"/>
      <circle cx="9" cy="10" r="2" fill="white"/>
      <circle cx="15" cy="10" r="2" fill="white"/>
      <path d="M10 14C11 15 13 15 14 14" stroke="white" stroke-width="2" stroke-linecap="round"/>
      <path d="M6 18C4 16 4 12 6 10M18 18C20 16 20 12 18 10" stroke="currentColor" stroke-width="2"/>
    </symbol>

    <!-- 考拉图表图标 -->
    <symbol id="chart-koala" viewBox="0 0 24 24">
      <path d="M4 20V8L8 4L12 8L16 4L20 8V20H4Z" fill="currentColor"/>
      <circle cx="8" cy="10" r="2" fill="white"/>
      <circle cx="16" cy="10" r="2" fill="white"/>
      <path d="M10 14H14" stroke="white" stroke-width="2" stroke-linecap="round"/>
    </symbol>

    <!-- 礼物太空猫图标 -->
    <symbol id="gift-astrocat" viewBox="0 0 24 24">
      <rect x="6" y="8" width="12" height="12" rx="2" fill="currentColor"/>
      <path d="M12 4V8M8 12H16" stroke="currentColor" stroke-width="2"/>
      <circle cx="12" cy="4" r="2" fill="currentColor"/>
      <path d="M10 14L12 16L14 14" stroke="white" stroke-width="2" stroke-linecap="round"/>
    </symbol>

    <!-- 聊天群组图标 -->
    <symbol id="chat-group" viewBox="0 0 24 24">
      <path d="M17 8C17 10.7614 14.7614 13 12 13C9.23858 13 7 10.7614 7 8C7 5.23858 9.23858 3 12 3C14.7614 3 17 5.23858 17 8Z" fill="currentColor"/>
      <path d="M3 21C3 16.5817 7.02944 13 12 13C16.9706 13 21 16.5817 21 21" stroke="currentColor" stroke-width="2" stroke-linecap="round"/>
      <path d="M14 8C14 9.10457 13.1046 10 12 10C10.8954 10 10 9.10457 10 8C10 6.89543 10.8954 6 12 6C13.1046 6 14 6.89543 14 8Z" fill="white"/>
      <circle cx="7" cy="11" r="2" fill="currentColor"/>
      <circle cx="17" cy="11" r="2" fill="currentColor"/>
    </symbol>

    <!-- 星星铃铛图标 -->
    <symbol id="bell-star" viewBox="0 0 24 24">
      <path d="M12 4V2M4 16V14L6 12V8C6 4 12 2 12 6V12L14 14V16H4Z" stroke="currentColor" stroke-width="2"/>
      <path d="M10 16C10 17.1046 10.8954 18 12 18C13.1046 18 14 17.1046 14 16" stroke="currentColor" stroke-width="2"/>
      <path d="M16 6L18 4M16 4L18 6" stroke="currentColor" stroke-width="2" stroke-linecap="round"/>
    </symbol>
  </defs>
</svg> 