<svg xmlns="http://www.w3.org/2000/svg" viewBox="0 0 24 24" fill="none">
  <defs>
    <linearGradient id="rocketGrad" x1="0%" y1="0%" x2="100%" y2="100%">
      <stop offset="0%" style="stop-color:#60a5fa"/>
      <stop offset="100%" style="stop-color:#3b82f6"/>
    </linearGradient>
  </defs>
  <!-- Rocket body -->
  <path d="M12 2l3 4v8l-1 2h-4l-1-2V6z" fill="url(#rocketGrad)" stroke="currentColor" stroke-width="1"/>
  <!-- Rocket tip -->
  <path d="M9 2l3 4 3-4-3-2z" fill="#fbbf24"/>
  <!-- Window -->
  <circle cx="12" cy="8" r="1.5" fill="#dbeafe" stroke="currentColor" stroke-width="0.5"/>
  <!-- Left fin -->
  <path d="M8 12l-2 3 0 2 2-1z" fill="currentColor"/>
  <!-- Right fin -->
  <path d="M16 12l2 3 0 2-2-1z" fill="currentColor"/>
  <!-- Flame -->
  <path d="M10 16l1 4 1-2 1 4 1-4" fill="#f97316" opacity="0.8"/>
  <!-- Stars -->
  <circle cx="6" cy="6" r="0.5" fill="#fbbf24"/>
  <circle cx="18" cy="8" r="0.5" fill="#fbbf24"/>
  <circle cx="4" cy="12" r="0.5" fill="#fbbf24"/>
</svg> 