<svg xmlns="http://www.w3.org/2000/svg" viewBox="0 0 24 24" fill="none">
  <!-- Table/gathering surface -->
  <ellipse cx="12" cy="16" rx="8" ry="2" fill="#fef3c7" stroke="currentColor" stroke-width="1"/>
  
  <!-- Person 1 (left) -->
  <circle cx="8" cy="10" r="2.5" fill="#fce7f3"/>
  <circle cx="8" cy="8" r="1.5" fill="#f3f4f6"/>
  <circle cx="7.5" cy="7.5" r="0.3" fill="currentColor"/>
  <circle cx="8.5" cy="7.5" r="0.3" fill="currentColor"/>
  <path d="M7.5 8.5 Q8 9 8.5 8.5" stroke="currentColor" stroke-width="0.3" fill="none"/>
  
  <!-- Person 2 (center) -->
  <circle cx="12" cy="9" r="2.8" fill="#dbeafe"/>
  <circle cx="12" cy="7" r="1.8" fill="#f3f4f6"/>
  <circle cx="11.5" cy="6.5" r="0.3" fill="currentColor"/>
  <circle cx="12.5" cy="6.5" r="0.3" fill="currentColor"/>
  <path d="M11.5 7.5 Q12 8 12.5 7.5" stroke="currentColor" stroke-width="0.3" fill="none"/>
  
  <!-- Person 3 (right) -->
  <circle cx="16" cy="10" r="2.5" fill="#ecfdf5"/>
  <circle cx="16" cy="8" r="1.5" fill="#f3f4f6"/>
  <circle cx="15.5" cy="7.5" r="0.3" fill="currentColor"/>
  <circle cx="16.5" cy="7.5" r="0.3" fill="currentColor"/>
  <path d="M15.5 8.5 Q16 9 16.5 8.5" stroke="currentColor" stroke-width="0.3" fill="none"/>
  
  <!-- Arms reaching toward center (showing interaction) -->
  <ellipse cx="9.5" cy="12" rx="0.5" ry="1.2" fill="#fce7f3" transform="rotate(20 9.5 12)"/>
  <ellipse cx="14.5" cy="12" rx="0.5" ry="1.2" fill="#ecfdf5" transform="rotate(-20 14.5 12)"/>
  <ellipse cx="12" cy="13" rx="0.5" ry="1.2" fill="#dbeafe"/>
  
  <!-- Speech bubbles/communication -->
  <circle cx="6" cy="5" r="1.2" fill="#fef9c3" stroke="currentColor" stroke-width="0.5"/>
  <path d="M6.8 5.8 L7.5 7" stroke="currentColor" stroke-width="0.5"/>
  <circle cx="6" cy="5" r="0.3" fill="#fbbf24"/>
  
  <ellipse cx="18" cy="6" rx="1" ry="0.8" fill="#fef9c3" stroke="currentColor" stroke-width="0.5"/>
  <path d="M17.2 6.5 L16.8 7.5" stroke="currentColor" stroke-width="0.5"/>
  <circle cx="18" cy="6" r="0.2" fill="#fbbf24"/>
  <circle cx="17.7" cy="6.3" r="0.2" fill="#fbbf24"/>
  
  <!-- Hearts/connection symbols -->
  <path d="M10 4 Q10.5 3.5 11 4 Q11.5 3.5 12 4 Q11.5 4.5 11 5 Q10.5 4.5 10 4" fill="#fca5a5"/>
  <path d="M13 12 Q13.3 11.7 13.6 12 Q13.9 11.7 14.2 12 Q13.9 12.3 13.6 12.6 Q13.3 12.3 13 12" fill="#fca5a5"/>
  
  <!-- Stars indicating positive energy -->
  <path d="M4 8 L4.3 8.5 L4.8 8.5 L4.5 8.8 L4.6 9.3 L4 9 L3.4 9.3 L3.5 8.8 L3.2 8.5 L3.7 8.5 Z" fill="#fbbf24"/>
  <path d="M20 10 L20.3 10.5 L20.8 10.5 L20.5 10.8 L20.6 11.3 L20 11 L19.4 11.3 L19.5 10.8 L19.2 10.5 L19.7 10.5 Z" fill="#fbbf24"/>
</svg> 