<?xml version="1.0" encoding="UTF-8"?>
<svg width="24" height="24" viewBox="0 0 24 24" xmlns="http://www.w3.org/2000/svg">
  <!-- 背景圆圈 -->
  <circle cx="12" cy="12" r="10" fill="currentColor"/>
  
  <!-- 左侧家长头像 -->
  <circle cx="8" cy="9" r="2.5" fill="white"/>
  <circle cx="8" cy="8.5" r="1.2" fill="currentColor" opacity="0.1"/>
  <circle cx="7.5" cy="8" r="0.3" fill="currentColor"/>
  <circle cx="8.5" cy="8" r="0.3" fill="currentColor"/>
  <path d="M7.5 8.8 Q8 9.2 8.5 8.8" stroke="currentColor" stroke-width="0.4" fill="none"/>
  
  <!-- 右侧家长头像 -->
  <circle cx="16" cy="9" r="2.5" fill="white"/>
  <circle cx="16" cy="8.5" r="1.2" fill="currentColor" opacity="0.1"/>
  <circle cx="15.5" cy="8" r="0.3" fill="currentColor"/>
  <circle cx="16.5" cy="8" r="0.3" fill="currentColor"/>
  <path d="M15.5 8.8 Q16 9.2 16.5 8.8" stroke="currentColor" stroke-width="0.4" fill="none"/>
  
  <!-- 对话气泡1 -->
  <ellipse cx="10" cy="5" rx="2" ry="1.5" fill="white" opacity="0.9"/>
  <path d="M9 6.2 L8.5 7.5" stroke="white" stroke-width="0.8" fill="none"/>
  <circle cx="9.5" cy="5" r="0.2" fill="currentColor"/>
  <circle cx="10" cy="5" r="0.2" fill="currentColor"/>
  <circle cx="10.5" cy="5" r="0.2" fill="currentColor"/>
  
  <!-- 对话气泡2 -->
  <ellipse cx="14" cy="4.5" rx="1.8" ry="1.3" fill="white" opacity="0.9"/>
  <path d="M15 5.5 L15.5 7" stroke="white" stroke-width="0.8" fill="none"/>
  <path d="M13.2 4.5 Q14 4 14.8 4.5" stroke="currentColor" stroke-width="0.3" fill="none"/>
  
  <!-- 讨论桌面/平台 -->
  <ellipse cx="12" cy="15" rx="6" ry="2" fill="white" opacity="0.8"/>
  
  <!-- 交流箭头 -->
  <path d="M10.5 11 L13.5 11" stroke="white" stroke-width="1.2" marker-end="url(#arrowhead)"/>
  <path d="M13.5 12.5 L10.5 12.5" stroke="white" stroke-width="1.2" marker-end="url(#arrowhead2)"/>
  
  <!-- 箭头标记定义 -->
  <defs>
    <marker id="arrowhead" markerWidth="10" markerHeight="7" refX="9" refY="3.5" orient="auto">
      <polygon points="0 0, 10 3.5, 0 7" fill="white"/>
    </marker>
    <marker id="arrowhead2" markerWidth="10" markerHeight="7" refX="9" refY="3.5" orient="auto">
      <polygon points="0 0, 10 3.5, 0 7" fill="white"/>
    </marker>
  </defs>
  
  <!-- 小爱心表示友好交流 -->
  <path d="M12 17 Q11.5 16.5 11 17 Q11.5 17.5 12 18 Q12.5 17.5 13 17 Q12.5 16.5 12 17" fill="white" opacity="0.8"/>
</svg> 